<?xml version="1.0" encoding="UTF-8"?><svg id="Layer_5" xmlns="http://www.w3.org/2000/svg" viewBox="0 0 2004.09 2834.65"><g id="Layer_1"><path d="M1376.81,1410.91v22.48c-.23,1.59-.51,3.17-.68,4.76-1.1,10.54-1.74,21.14-3.34,31.6-6.4,41.71-19.91,81.03-41.04,117.59-38.45,66.51-92.83,115.41-163.28,146.14-31.73,13.84-64.87,22.72-99.41,26.04-6.31.61-12.6,1.36-18.9,2.05h-35.21c-1.09-.22-2.17-.56-3.27-.63-26.1-1.71-51.74-5.99-76.8-13.58-70.64-21.39-128.73-61.25-173.93-119.46-41.31-53.19-64.72-113.62-70.6-180.79-3.22-36.72-1.43-73.16,7.8-108.88,28.69-111.08,95.54-190.38,200.38-236.88,52.44-23.26,107.75-31.18,164.93-26.23,38.67,3.35,75.67,13.11,110.91,29.15,54.37,24.75,99.5,61.23,134.92,109.37,39.52,53.71,61.64,113.95,66.28,180.53.39,5.58.83,11.16,1.25,16.74ZM1033.01,1138.17c-153.99.04-276.89,123.43-279.66,271.93-3.06,164.25,126.73,284.78,274.43,287.04,157.69,2.41,284.58-124.48,284.45-278.55-.14-159.4-128.53-280.55-279.23-280.41Z"/><path d="M1070.12,1605.53h-75.23v-275.25h75.23v275.25Z"/><path d="M1032.1,1295.96c-5.29-.78-10.72-1.07-15.86-2.43-15.21-4.01-23.48-14.34-24.29-30.26-.26-5.19-.09-10.55.95-15.61,2.47-12.1,10.22-19.71,21.94-23.22,10.25-3.06,20.75-3.24,31.13-1.11,17.34,3.57,25.89,13.82,27.26,31.79,1.31,17.08-4.91,29.47-18.12,35.95-7.23,3.55-15,4.43-23,4.88Z"/></g></svg>